<svg xmlns="http://www.w3.org/2000/svg" width="3518" height="490" fill="none"><path fill="#222" d="M0 0h1005v490H0z"/><path fill="#fff" d="M125.077 261.631V372H72.129V181.091h50.462v33.682h2.237q6.339-16.654 21.254-26.349 14.915-9.819 36.168-9.819 19.887 0 34.677 8.7 14.79 8.701 22.993 24.858 8.204 16.034 8.204 38.282V372h-52.948V259.891q.125-17.526-8.949-27.344-9.072-9.943-24.982-9.943-10.689 0-18.892 4.598-8.079 4.6-12.678 13.424-4.474 8.7-4.598 21.005m202.253 55.433.124-63.512h7.706l61.151-72.461h60.777l-82.155 95.952h-12.554zM279.354 372V117.455h52.947V372zm119.318 0-56.179-83.15 35.298-37.411L460.693 372zm126.84-254.545V372h-52.947V117.455zm118.171 258.274q-29.332 0-50.461-12.429-21.006-12.554-32.316-34.801-11.186-22.248-11.186-51.208 0-29.333 11.311-51.456 11.435-22.248 32.439-34.677 21.005-12.553 49.965-12.553 24.982 0 43.75 9.073 18.767 9.073 29.705 25.48 10.938 16.405 12.056 38.53h-49.964q-2.114-14.294-11.187-22.994-8.948-8.825-23.49-8.825-12.305 0-21.502 6.712-9.073 6.587-14.169 19.265t-5.096 30.699q0 18.271 4.971 31.073 5.096 12.801 14.294 19.513 9.197 6.712 21.502 6.712 9.072 0 16.282-3.729 7.332-3.728 12.056-10.813 4.847-7.209 6.339-17.276h49.964q-1.243 21.874-11.932 38.53-10.565 16.53-29.208 25.852t-44.123 9.322M753.34 372V117.455h52.948v95.703h1.616q3.48-7.707 10.067-15.661 6.712-8.079 17.401-13.423 10.812-5.469 26.846-5.469 20.881 0 38.53 10.938 17.65 10.812 28.214 32.688 10.564 21.75 10.564 54.563 0 31.943-10.316 53.942-10.191 21.875-27.84 33.185-17.526 11.187-39.276 11.186-15.412 0-26.225-5.096-10.69-5.095-17.525-12.801-6.836-7.831-10.44-15.785h-2.362V372zm51.829-95.455q0 17.028 4.723 29.706 4.723 12.677 13.672 19.762 8.949 6.96 21.751 6.96 12.926 0 21.875-7.085 8.95-7.208 13.547-19.886 4.723-12.801 4.723-29.457 0-16.53-4.598-29.083-4.599-12.553-13.548-19.638t-21.999-7.085q-12.927 0-21.875 6.836-8.824 6.837-13.548 19.389-4.722 12.554-4.723 29.581"/><path fill="#222" d="M1123.14 375.604c-12.18 0-23.03-2.113-32.56-6.338q-14.295-6.464-22.62-19.017c-5.47-8.451-8.21-18.975-8.21-31.569q0-15.91 5.85-26.723c3.89-7.208 9.19-13.009 15.91-17.4q10.065-6.588 22.86-9.943c8.62-2.238 17.65-3.812 27.1-4.723q16.65-1.74 26.85-3.232 10.185-1.615 14.79-4.723c3.06-2.071 4.6-5.137 4.6-9.197v-.746c0-7.872-2.49-13.962-7.46-18.271q-7.335-6.462-20.88-6.463c-9.53 0-17.11 2.113-22.75 6.339-5.63 4.143-9.36 9.363-11.18 15.661l-48.97-3.978c2.48-11.6 7.37-21.626 14.66-30.078 7.29-8.534 16.7-15.08 28.22-19.638 11.6-4.64 25.02-6.96 40.27-6.96q15.9 0 30.45 3.729c9.77 2.486 18.43 6.339 25.97 11.559 7.63 5.22 13.63 11.932 18.03 20.135 4.39 8.12 6.58 17.856 6.58 29.208V372h-50.21v-26.474h-1.49c-3.07 5.966-7.17 11.228-12.31 15.785-5.13 4.475-11.31 7.996-18.52 10.565-7.2 2.486-15.53 3.728-24.98 3.728m15.17-36.541c7.78 0 14.66-1.533 20.63-4.599 5.96-3.148 10.65-7.374 14.04-12.677q5.1-7.954 5.1-18.022v-20.259q-2.49 1.615-6.84 2.983-4.215 1.242-9.57 2.361c-3.56.663-7.12 1.284-10.69 1.864q-5.34.746-9.69 1.368c-6.22.911-11.64 2.361-16.28 4.35s-8.25 4.681-10.82 8.079c-2.57 3.314-3.85 7.457-3.85 12.429q0 10.813 7.83 16.53c5.3 3.729 12.02 5.593 20.14 5.593m175.87-77.432V372h-52.95V181.091h50.46v33.682h2.24c4.23-11.103 11.31-19.886 21.25-26.349 9.95-6.546 22-9.819 36.17-9.819q19.89 0 34.68 8.7c9.86 5.801 17.52 14.087 22.99 24.858 5.47 10.689 8.21 23.45 8.21 38.282V372h-52.95V259.891c.08-11.684-2.9-20.798-8.95-27.344-6.05-6.629-14.38-9.943-24.98-9.943q-10.695 0-18.9 4.598c-5.38 3.066-9.61 7.541-12.67 13.424-2.99 5.8-4.52 12.802-4.6 21.005m207.22 0V372h-52.94V181.091h50.46v33.682h2.23c4.23-11.103 11.31-19.886 21.26-26.349 9.94-6.546 22-9.819 36.17-9.819 13.25 0 24.81 2.9 34.67 8.7 9.86 5.801 17.53 14.087 23 24.858 5.47 10.689 8.2 23.45 8.2 38.282V372h-52.95V259.891c.09-11.684-2.9-20.798-8.95-27.344-6.05-6.629-14.37-9.943-24.98-9.943-7.12 0-13.42 1.533-18.89 4.598-5.39 3.066-9.61 7.541-12.68 13.424-2.98 5.8-4.51 12.802-4.6 21.005m240.54 114.098c-19.31 0-36.01-4.102-50.09-12.305-14-8.286-24.82-19.803-32.44-34.553-7.62-14.831-11.44-32.025-11.44-51.58 0-19.72 3.82-36.955 11.44-51.704 7.62-14.832 18.44-26.35 32.44-34.553 14.08-8.286 30.78-12.429 50.09-12.429 19.3 0 35.96 4.143 49.96 12.429 14.09 8.203 24.94 19.721 32.57 34.553q11.43 22.124 11.43 51.704 0 29.333-11.43 51.58c-7.63 14.75-18.48 26.267-32.57 34.553-14 8.203-30.66 12.305-49.96 12.305m.25-41.016c8.78 0 16.11-2.486 22-7.457q8.82-7.582 13.29-20.632c3.07-8.701 4.6-18.602 4.6-29.706s-1.53-21.005-4.6-29.705q-4.47-13.05-13.29-20.632c-5.89-5.054-13.22-7.582-22-7.582q-13.305 0-22.38 7.582c-5.96 5.054-10.48 11.932-13.54 20.632-2.99 8.7-4.48 18.602-4.48 29.705 0 11.104 1.49 21.005 4.48 29.706 3.06 8.7 7.58 15.577 13.54 20.632q9.075 7.457 22.38 7.457m240.06-43.999V181.091h52.95V372h-50.83v-34.677h-1.99c-4.31 11.186-11.48 20.177-21.5 26.971q-14.925 10.192-36.42 10.192c-12.76 0-23.99-2.9-33.68-8.7-9.7-5.801-17.28-14.045-22.75-24.734-5.38-10.689-8.12-23.491-8.2-38.406V181.091h52.95V293.2c.08 11.269 3.1 20.177 9.07 26.723 5.96 6.546 13.96 9.818 23.99 9.818 6.38 0 12.34-1.45 17.89-4.35 5.56-2.983 10.03-7.374 13.43-13.174 3.48-5.801 5.18-12.968 5.09-21.503M2140 261.631V372h-52.95V181.091h50.46v33.682h2.24c4.23-11.103 11.31-19.886 21.26-26.349 9.94-6.546 21.99-9.819 36.16-9.819q19.89 0 34.68 8.7c9.86 5.801 17.53 14.087 22.99 24.858 5.47 10.689 8.21 23.45 8.21 38.282V372h-52.95V259.891c.08-11.684-2.9-20.798-8.95-27.344-6.05-6.629-14.38-9.943-24.98-9.943-7.13 0-13.42 1.533-18.89 4.598-5.39 3.066-9.61 7.541-12.68 13.424-2.98 5.8-4.52 12.802-4.6 21.005m240.53 114.098q-29.325 0-50.46-12.429-21-12.554-32.31-34.801-11.19-22.248-11.19-51.208 0-29.333 11.31-51.456c7.63-14.832 18.44-26.391 32.44-34.677 14.01-8.368 30.66-12.553 49.97-12.553 16.65 0 31.23 3.024 43.75 9.073q18.765 9.073 29.7 25.48 10.935 16.405 12.06 38.53h-49.97c-1.41-9.529-5.13-17.194-11.18-22.994q-8.955-8.825-23.49-8.825c-8.21 0-15.37 2.238-21.51 6.712-6.04 4.392-10.77 10.813-14.16 19.265q-5.1 12.678-5.1 30.699c0 12.181 1.66 22.538 4.97 31.073 3.4 8.534 8.16 15.039 14.29 19.513 6.14 4.475 13.3 6.712 21.51 6.712 6.05 0 11.47-1.243 16.28-3.729 4.89-2.485 8.91-6.09 12.05-10.813 3.24-4.806 5.35-10.564 6.34-17.276h49.97c-.83 14.583-4.81 27.426-11.93 38.53-7.05 11.02-16.78 19.637-29.21 25.852q-18.645 9.321-44.13 9.322m195.67 0c-19.64 0-36.54-3.978-50.71-11.932-14.09-8.038-24.94-19.389-32.56-34.056-7.63-14.749-11.44-32.191-11.44-52.326 0-19.637 3.81-36.872 11.44-51.704q11.43-22.248 32.19-34.677c13.92-8.286 30.24-12.429 48.97-12.429 12.59 0 24.32 2.03 35.17 6.09q16.41 5.967 28.59 18.022 12.3 12.057 19.14 30.327c4.56 12.098 6.83 26.267 6.83 42.507v14.542h-161.2v-32.812h111.36c0-7.624-1.65-14.377-4.97-20.26-3.31-5.883-7.91-10.481-13.79-13.796-5.8-3.397-12.56-5.096-20.26-5.096-8.04 0-15.17 1.865-21.38 5.593-6.13 3.646-10.94 8.576-14.42 14.791q-5.22 9.196-5.34 20.508v31.196q0 14.17 5.22 24.485c3.56 6.878 8.57 12.181 15.04 15.91 6.46 3.728 14.12 5.593 22.99 5.593 5.88 0 11.27-.829 16.16-2.486s9.07-4.143 12.55-7.458c3.48-3.314 6.13-7.374 7.96-12.18l48.97 3.231c-2.49 11.767-7.59 22.041-15.29 30.824q-11.43 13.051-29.58 20.384-18.03 7.209-41.64 7.209M2687.88 372V181.091h50.46v33.682h2.24c3.97-11.186 10.6-20.01 19.88-26.473s20.39-9.695 33.31-9.695c13.09 0 24.24 3.273 33.44 9.819 9.19 6.463 15.33 15.246 18.39 26.349h1.99c3.89-10.937 10.94-19.679 21.13-26.225q15.405-9.943 36.42-9.943c17.81 0 32.27 5.676 43.37 17.028 11.19 11.269 16.78 27.261 16.78 47.976V372h-52.82V254.049c0-10.606-2.82-18.561-8.45-23.864-5.64-5.303-12.68-7.954-21.13-7.954q-14.415 0-22.5 9.197c-5.38 6.049-8.08 14.045-8.08 23.988V372h-51.33V252.93c0-9.363-2.69-16.82-8.08-22.372q-7.95-8.327-21-8.327c-5.89 0-11.19 1.491-15.91 4.474-4.64 2.9-8.33 7.002-11.06 12.305q-4.11 7.83-4.11 18.395V372zm395.74 3.729c-19.64 0-36.54-3.978-50.71-11.932-14.09-8.038-24.94-19.389-32.57-34.056q-11.43-22.124-11.43-52.326 0-29.456 11.43-51.704c7.63-14.832 18.36-26.391 32.2-34.677 13.92-8.286 30.24-12.429 48.97-12.429 12.59 0 24.31 2.03 35.17 6.09q16.41 5.967 28.59 18.022 12.3 12.057 19.14 30.327c4.55 12.098 6.83 26.267 6.83 42.507v14.542h-161.2v-32.812h111.36c0-7.624-1.65-14.377-4.97-20.26q-4.965-8.824-13.8-13.796-8.7-5.096-20.25-5.096c-8.04 0-15.17 1.865-21.38 5.593-6.13 3.646-10.94 8.576-14.42 14.791q-5.22 9.196-5.34 20.508v31.196q0 14.17 5.22 24.485 5.34 10.317 15.03 15.91c6.47 3.728 14.13 5.593 23 5.593 5.88 0 11.27-.829 16.16-2.486 4.88-1.657 9.07-4.143 12.55-7.458q5.22-4.971 7.95-12.18l48.97 3.231c-2.48 11.767-7.58 22.041-15.28 30.824q-11.445 13.051-29.58 20.384-18.03 7.209-41.64 7.209m164.62-114.098V372h-52.94V181.091h50.46v33.682h2.23c4.23-11.103 11.31-19.886 21.26-26.349 9.94-6.546 22-9.819 36.17-9.819 13.25 0 24.81 2.9 34.67 8.7 9.86 5.801 17.53 14.087 23 24.858 5.47 10.689 8.2 23.45 8.2 38.282V372h-52.95V259.891c.09-11.684-2.9-20.798-8.95-27.344-6.05-6.629-14.37-9.943-24.98-9.943-7.12 0-13.42 1.533-18.89 4.598-5.39 3.066-9.61 7.541-12.68 13.424-2.98 5.8-4.51 12.802-4.6 21.005m255.82-80.54v39.773H3389.1v-39.773zm-88.86-45.739h52.94v177.983c0 4.889.75 8.701 2.24 11.435 1.49 2.651 3.57 4.516 6.22 5.593 2.73 1.077 5.88 1.616 9.44 1.616 2.49 0 4.97-.207 7.46-.622 2.49-.497 4.39-.87 5.72-1.118l8.32 39.399c-2.65.829-6.38 1.782-11.18 2.859-4.81 1.16-10.65 1.865-17.53 2.113-12.76.497-23.94-1.201-33.55-5.096-9.53-3.894-16.95-9.943-22.25-18.146q-7.965-12.305-7.83-31.073z"/></svg>